<?xml version="1.0" encoding="UTF-8"?>
<svg id="Layer_1" data-name="Layer 1" xmlns="http://www.w3.org/2000/svg" viewBox="0 0 1280 1024">
  <defs>
    <style>
      .cls-1 {
        fill: blue;
      }
    </style>
  </defs>
  <path class="cls-1" d="M1231.08,416.86c-15.03,5.76-31.04,9.85-46.74,13.82-13.25,3.36-29.92,8.72-43.65,11.24-3.87.72-7.76.27-11.63.33.49-10.36,7.51-18.39,10.94-27.79l32.02-94.75c2.09-2.97,28.67-7.84,33.81-8.44,4.22-.49,17.03,1.68,18.98-2.16.47-.92-4.55-5.81-5.07-6.14-6.44-4.04-41.71,6.26-44.2,4.05l38.73-97.18c-3.77,3.88-13.18,12.93-15.4,16.98-9.91,18.06-18.27,37.05-27.29,55.82-4.15,8.63-2.82,7.03-5.03,14.55-.18.64-6.61,10.88-7.11,11.32-1.96,1.74-9.98,3.56-12.91,4-4.64.68-21.12,2.09-25.13,1.47-2.92-.45-5.07-2.5-8.51-2.81-4.43-.41-15.46,1.07-9.14,6.38,1.82,1.52,25.03,4.89,28.92,5.01,7,.23,13.97-2.91,21.76-.04-2.13,6.54-4.23,13.12-6.41,19.66-2.63,7.88-6.49,16.23-8.47,23.92-5.01,19.49-12.38,32.7-19.55,50.88-3.37,8.55-7.04,28.65-12.46,34.72-1.22,1.35-28.43,13.47-32.94,15.66-20.23,9.82-31.92,17.51-56.09,18.55-9.3.4-17.46,2.69-17.58-9.13-.17-14.89,27.52-52.93,37.19-65.63,7.7-10.11,19.66-26.62,29.42-34.66,4.55-3.74,16.17-8.97,19.26-1.14-5.96,9.25-15.22,12.68-21.81,20.41-7.08-11.04-9.75,6.07-13.35,12.01,9.18-.16,18.71.28,26.27-5.42,0,0,11.39-7.9,13.47-10.52t.01-.02c1.01-.85,1.82-1.88,2.29-3.17,3.81-5.49,10.5-15.8,12.01-19.82.97-1.77,2.26-5.7,2.26-7.29v-.16c-.09-1.24-4.94-15.04-5.57-15.56,0,0-6.49-3.87-10.22-3.51h-.22c-1.23,0-2.83.46-5.48,1.69-2.89,1.35-29.6,22.87-32.11,25.64l-26.34,31.86c-.17.18-.34.35-.5.52l-8.13,10.37c1.34-2.3.15-7.43.01-7.96-1.84-2.53-2.16-7.84-7.1-9.45-1.98-.63-15.09-2.03-17.76-2.07-12.48-.13-36.24,5.26-48.46,7.87-4.61.97-9.46,1.58-14.14,2.04-3.08-3.14,7.88-16.06,14.03-27.33l7.06-12.12c1.97-4.97,4.22-10.53,6.54-15.31,7.49-15.43,14.99-32.23,20.95-48.29v-.06s3.28-13.88,3.28-13.88l2.3-9.7h0c2.21-17.7,1.62-26.51,1.59-26.9h0c-1.43-3.77-2.78-7.91-6.89-6.84-2.5.66-26.88,36.34-30.32,41.65-14.6,22.6-26.38,47.48-41.81,69.46-5.32,2.24,1.11-8.83,1.43-9.83.96-2.87,1.59-5.66,2.12-8.35,0-.04.01-.07.02-.11.26-1.33.49-2.64.73-3.93v-.02c.19-.85.36-1.77.51-2.75.73-4.75,1.01-10.77,1.09-16.24.01-1.11.02-2.19.02-3.23.01-6.28-.21-11.26-.23-11.8h0c-1.92-6.22-6.63-11.09-11.29-18.38-3.79-3.54-6.42-.58-9.23,2.08-15.74,14.95-29.2,44.76-40.24,63.99-16.05,27.98-32.42,56.21-47.57,84.82-17,32.07-32.18,65.16-49.34,97.14-11.29,8.56-5.36-19.5-4.01-23.73,7.91-24.82,24.98-49.76,34.09-74.41,1.75-6.47-3.93-12.64-9.03-16.05-1,.21-10.11,14.98-11.16,17.03-9.69,19.1-16.3,39.16-27.35,58.56-9.09,15.99-36.75,61.84-49.64,71.49-8.49,6.36-23.47,14.65-23.55-2.69-.07-17.35,20.74-55.3,27.52-73.62,2.8-7.56,10.38-26.88,11.21-33.65.85-7.11-3.76-5.48-5.94-7.46-2.25-2.05-2.54-6.31-6.29-5.71-9.38,18.14-18.44,36.45-27.81,54.6-9.53,18.45-48.37,96.03-62.27,103.95-4.3,2.46-26.33,11.86-30.73,12.96-6.09,1.53-8.49-.56-6.72-6.73,2.2-7.73,10.33-18.2,13.72-25.75,4.16-9.24,7.14-20.2,11.39-29.44,23.05-49.99,49.99-98.23,72.78-148.36,3.95-4.97,22.79-11.57,29.63-14.04,11.35-4.08,30.28-10.62,41.86-13.07,4.3-.91,23.21-.56,24.31-5.29,1.2-5.09-10.02-6.52-13.4-6.39-22.02.77-44.01,9.09-64.86,15.55-8.4-.18,2.29-17.15,4.29-21.13,17.27-34.25,35.3-68.33,52.48-102.47,7.85-15.62,18.36-32.14,24.98-48.25.68-1.64,2.76-5.69,1.57-7.09-3.25.57-7.38-7.12-9.26-5.56-.13.11-.28,2.08-1.53,3.33-7,6.99-11.68,16.53-17.59,24.74-21.98,30.5-43.86,62.28-65.44,92.32-19.4,27.02-39.74,53.44-58.5,80.94-5.75,6.52-20.01-1.22-23.84,7.17-3.44,7.57,5.98,7.11,7.5,12.25,1.63,5.56-8.86,17.14-12.46,22.26-9.04,12.83-18.9,27.1-28.4,40.57-17.13,24.29-37.38,46.54-49.03,74.2,2.15,1.6,10.07-5.24,12-7,27.44-24.85,59.94-77.15,82.93-108.63,3.71-5.08,8.45-15.86,12.76-19.62,1.86-1.62,20.54-8.07,22.85-8.22,4.41-.28,3.72,6.72,2.13,9.28-32.08,60.35-57.7,124.1-88.01,185.22-3.5,7.04-8.56,19.77-15.09,22.95-12.4,6.07-30.7,12.47-44.09,17.87-64.31,25.91-130.08,51.52-188.73,87.31-24.63,15.04-51.54,28.99-76.88,44.25-16.56,9.98-37.47,26.72-54.3,34.43-1.04.48-5.27,2.14-7.63,2.69-.77.21-.11-1.26,1.1-3.27.16-.08.26-.15.26-.22,0-.04-.02-.11-.03-.16,2.36-3.87,6.42-9.42,6.42-9.42h0c1.53-2.04,3.27-4.45,4.75-5.89,103.76-100.66,185.85-206.24,268.78-325.6,39.17-56.37,81.96-110.16,120.13-167.2,21.31-31.85,41.86-65.04,63.96-96.62,15.94-22.78,36.73-45.65,47.64-72.08,2.71-6.56,3.31-14.44,6.49-20.97l-6.43,1.31c-7.43,12.67-24.95,19.75-25.23,35.34-84.11,137.26-181.99,265.76-274.73,397.12-62.92,89.13-147.46,172.64-224.67,248.6-23.9,23.51-55.96,60.38-83.37,77.18-4.22,2.59-22.2,8.89-23.19,9.91-.79.79-6.63,17.59-8.1,20.78-1.41,3.09-10.95,17.88-9.12,19.75l23.56-7.42c37.09-31.45,80.45-56.29,121.37-82.15,94.15-59.52,180.03-105.91,282.86-149.52,15.14-6.42,48.07-22.45,61.9-25.42,2.01-.43,3.99-.46,6.01-.33,2.54,2.52-11.68,37.18-13.8,43.24-8.67,24.79-14.36,46.88-16.78,73.38-1.12,12.33-1.13,25.21-1.84,37.65,18.99-1.33,21.04-24.17,21.04-24.17,2.36-9.74,1.39-26.21,5.91-34.84,1.98-3.78,14.14-13.62,18.1-18.51,21.86-27.1,38.23-58.19,57.99-87.09,3.51-5.15,15.45-23.56,18.76-26.32,4.62-3.85,32.48-13.42,40.14-16.19,4.11-1.5,9.65-1.58,14.84-3.46,8.07-2.93,62.24-25.72,65.45-22.56-1.69,15.05-12.17,28.59-17.63,42.23-8.38,20.95-30.83,81.94-30.12,102.02.07,2.2.8,4.42,1.4,6.75t.01.04c.34.73,7.22,10.99,20.79-1.95,4.46-11.56,26.94-45.84,25.33-52.3-.09-.38-3.85-6.24-4.18-6.43-4.62-2.63-5.52,5.93-10.39,6.83-4.96.9-3.77-1.62-3.14-5.96,2.22-15.14,28.96-77.09,37.37-92.22.89-1.6,4.32-6.61,5.56-7.51,2.42-1.73,35.63-10.25,37.5-9.71,2.49.73,2.61,4.02,2.27,6.11-9.25,19.82-19.17,39.78-27.43,60.01-15.43,37.8-25.46,70.92-33.04,110.64-1.22,6.37-.9,10.94,6.25,10.59,8.61-.41,12.38-5.53,15.84-12.45,1.62-3.23,9.34-25.65,8.58-26.85-.68-1.11-3.39.46-4.08-5.08-1.13-9.13,1.48-20.86,4.39-29.6,6.86-20.69,19.94-49.08,29.27-69.33,7.44-16.16,16.55-34.42,28.45-47.62,10.56-11.72,29.05-10.08,43.59-14.83-4.11,14.98,9.53,8.45,16.23,2.83,2.57-2.15,3.53-5.36,5.58-7.09,6.54-5.54,56.48-12.84,68.1-14.99,5.48-1.02,10.5-3.98,16.59-4.52,13.23-1.19,26.09,5.09,39.13,1.09,5.2-1.6,9.57-6.05,14.37-8.17,10.07-4.45,18.92-6.03,29.01-9.02,10.25-3.05,20.7-5.54,30.68-9.43.04.07.05.13.09.21l-2.54,9.3c-7.06,21.46-15.95,40.52-24.23,60.28-11.26,26.85-19.77,54.68-30.46,80.81-4.47,10.9-14.82,16.4-19.2,24.47-2.14,3.94-3.59,11.34-5.35,15.78,3.74,2.77,28.12-11.99,28.98-13.36,0,0,8.8-7.57,9.13-17.57.05-.43.07-.89.07-1.35,0-2.13-.38-4.58.22-6.78,2.37-8.86,8.12-19.82,10.99-28.46l20.9-53.62c.1-.23.18-.46.28-.69l.38-.97s-.01.01-.02.02c1.62-4.4,2.7-9.15,4.52-13.06,8.87-18.9,18.2-37.13,27.17-55.93,2.76-5.77,6.55-19.99,10.02-23.79,3.04-3.36,22.38-9.66,27.9-11.52,20.06-6.76,40.62-12.41,60.98-18.44,0,0,.02-.01.07-.02.97-.36,11.21-4.24,22.82-10.9,6.76-3.89,13.98-8.72,20.11-14.36l-21.35,9.47ZM631.93,388.73c-1.63-6.66,2.69-8,5.41-12.21,12.46-19.26,29.91-48.37,45.34-64.52,4.36-4.57,7.16-5.43,6.71,2.43l-34.32,65.74c-5.01,7.33-14.88,8.51-23.15,8.55ZM578.44,634.64c-.29,1.47-.75,2.6-1.22,3.44-.55.66-1.07,1.33-1.57,2.02h-.01c-2.36,3.2-4.32,6.65-6.22,10.13-1.9,3.48-3.74,6.98-5.86,10.31-8.14,12.81-20.47,31.3-31.04,42.21-3.19,3.29-5.97,4.98-5.62-1.28.46-8.55,15.83-50.55,20.71-58.27,3.98-6.27,12.34-6.77,18.49-8.8.04,0,.05-.01.05-.01,0,0,13.06-3.68,12.28.26ZM640.38,587.36c-.51.47-5.26.89-4.21-2.09.05-.12.1-.24.15-.35,0,0,.1-.19.27-.5.56-1.08,1.93-3.56,2.72-4.12.88-.62,1.28,4.63,1.36,5.99.01.19.02.32.02.32-.01.29-.11.56-.32.75ZM805.82,461.95c3.59-12.28,18.02-33.97,24.42-46,10.73-20.16,21.18-40.7,32.41-60.56,3.1-5.48,17.09-31.24,20.92-32.6,1.03-.38,4.04-.63,4.58-.17.36.32,2.8,8.51,2.84,9.14.41,5.62-6.67,25.31-9.12,31.61-10.24,26.37-27.75,48.85-44.34,71.17l-32.39,34.5c-.24-2.44-.04-4.7.66-7.08ZM819.51,517.91c-1.63,2.47-3.79,4.25-5.8,5.97-1.48,1.01-3.45,1.73-5.04,2.2-1.59.47-2.82.69-2.82.69-5.39-.32-30.49,11.01-33.1,9.23-4.19-2.87,5.37-16.98,7.33-20.92,1.6-3.23.69-7.79,4.97-9.11,2.21-.69,4.78-.01,7.37-1.09,16.36-6.78,15.6-14.6,25.44-26.66,11.16-13.65,29.18-32.76,41.65-45.67,1.46-1.52,2.03-3.59,4.8-2.94,2.36,2.3-24.82,47.64-27.8,53.17-5.75,10.66-10.45,25.24-17,35.13ZM846,500.01c5.97-11.97,11.73-24.39,18.05-36.17,20.82-38.78,43.18-76.92,65.31-114.98,7.51-12.92,15.43-31.72,24.45-43.17.95-1.19,3.23-4.11,4.84-2.88.49.36,1.02,4.22.78,5.59-2.38,13.08-16.4,40.51-23.06,53.1-19.78,37.38-49.06,93.08-74.9,125.1-1.77,2.19-13.03,15.8-15.46,13.4ZM885.18,500.73s-.01.04-.04.09c-.01.02-.02.06-.04.1-.46,1.2-3.06,7.8-4.53,9.11-.46.4-1.87.91-3.67,1.42-.5.16-1.03.3-1.59.44-4.39,1.17-9.83,2.25-9.83,2.25l.26-.17c-1.53.17-2.7-.57-2.94-3.4-.34-4.01,12.83-17.44,16.18-21.92,1.31-1.74,8.38-16.81,12.08-13.96,3.34,2.58-1.75,17.08-5.87,26.05ZM995.62,429.15c-2.54,8.58-13.24,21.31-17.79,30.2-4.22,8.25-8.12,23.46-12.31,29.93-.18.28-.38.55-.58.78-5.18,3.04-14.73,4.53-14.73,4.53h-.02c-13.03,1.58-28.81,8.22-42.55,8.75-1.59.06-2.6-.06-3.21-.33l.95-3.77h.01s5.59-22.1,5.59-22.1v-.05c2.74-12.66,5.54-25.66,8.56-38.04,2.33-9.53,17.82-9.14,27.01-12.02l9.94-1.76c4.35-.72,8.59-2.07,12.9-2.55,5.7-.63,22.04-2.29,25.47,1.67,1.5,1.73,1.37,2.71.77,4.77Z"/>
</svg>